<mxfile host="app.diagrams.net" modified="2021-10-30T01:39:53.499Z" agent="5.0 (Macintosh; Intel Mac OS X 10_15_7) AppleWebKit/537.36 (KHTML, like Gecko) Chrome/95.0.4638.54 Safari/537.36" etag="QMn_0qPpGGnmuC-67fYg" version="15.6.2" type="github">
  <diagram name="Page-1" id="c4acf3e9-155e-7222-9cf6-157b1a14988f">
    <mxGraphModel dx="1113" dy="1892" grid="1" gridSize="10" guides="1" tooltips="1" connect="1" arrows="1" fold="1" page="1" pageScale="1" pageWidth="1600" pageHeight="1200" background="none" math="0" shadow="0">
      <root>
        <mxCell id="0" />
        <mxCell id="1" parent="0" />
        <mxCell id="bxKK3A8rRiATeC3KXuF5-2" value="&lt;p style=&quot;margin: 4px 0px 0px ; text-align: center&quot;&gt;&lt;b&gt;Statistics&lt;/b&gt;&lt;/p&gt;&lt;p style=&quot;margin: 4px 0px 0px ; text-align: center&quot;&gt;/statistics&lt;/p&gt;&lt;hr size=&quot;1&quot;&gt;&lt;p style=&quot;text-align: justify ; margin: 0px 0px 0px 4px&quot;&gt;&amp;lt;Header /&amp;gt;&lt;br&gt;&lt;/p&gt;&lt;p style=&quot;text-align: justify ; margin: 0px 0px 0px 4px&quot;&gt;&lt;br&gt;&lt;/p&gt;&lt;p style=&quot;text-align: justify ; margin: 0px 0px 0px 4px&quot;&gt;h1: Statistics Page&lt;/p&gt;&lt;p style=&quot;text-align: justify ; margin: 0px 0px 0px 4px&quot;&gt;&amp;lt;StatsDaily /&amp;gt;&lt;/p&gt;&lt;p style=&quot;text-align: justify ; margin: 0px 0px 0px 4px&quot;&gt;&amp;lt;StatsWeekly /&amp;gt;&lt;/p&gt;&lt;p style=&quot;text-align: justify ; margin: 0px 0px 0px 4px&quot;&gt;&amp;lt;StatsMonthly /&amp;gt;&lt;/p&gt;&lt;p style=&quot;text-align: justify ; margin: 0px 0px 0px 4px&quot;&gt;button: daily-record-button&lt;/p&gt;&lt;p style=&quot;text-align: justify ; margin: 0px 0px 0px 4px&quot;&gt;&lt;span style=&quot;text-align: left&quot;&gt;button:&amp;nbsp;&lt;/span&gt;&lt;span style=&quot;text-align: left&quot;&gt;weekly-record-button&amp;nbsp;&lt;/span&gt;&lt;/p&gt;&lt;span style=&quot;text-align: left&quot;&gt;&lt;div style=&quot;text-align: justify&quot;&gt;&lt;span&gt;&amp;nbsp;button:&amp;nbsp;&lt;/span&gt;&lt;span&gt;monthly-record-button&lt;/span&gt;&lt;/div&gt;&lt;/span&gt;&lt;p&gt;&lt;/p&gt;&lt;hr size=&quot;1&quot; style=&quot;text-align: justify&quot;&gt;&lt;p style=&quot;text-align: justify ; margin: 0px 0px 0px 4px&quot;&gt;+ onClickedDailyButton&lt;/p&gt;&lt;p style=&quot;text-align: justify ; margin: 0px 0px 0px 4px&quot;&gt;+ onClickedWeeklyButton&lt;/p&gt;&lt;p style=&quot;text-align: justify ; margin: 0px 0px 0px 4px&quot;&gt;+ onClickedMonthlyButton&lt;/p&gt;" style="verticalAlign=top;align=left;overflow=fill;fontSize=12;fontFamily=Helvetica;html=1;rounded=0;shadow=0;comic=0;labelBackgroundColor=none;strokeWidth=1" vertex="1" parent="1">
          <mxGeometry x="380" y="-832" width="210" height="252" as="geometry" />
        </mxCell>
        <mxCell id="bxKK3A8rRiATeC3KXuF5-3" value="" style="edgeStyle=orthogonalEdgeStyle;rounded=0;orthogonalLoop=1;jettySize=auto;html=1;fontColor=#FFFFFF;" edge="1" parent="1">
          <mxGeometry relative="1" as="geometry">
            <Array as="points">
              <mxPoint x="1240" y="-1104" />
              <mxPoint x="1240" y="-1104" />
            </Array>
            <mxPoint x="1210" y="-1104" as="sourcePoint" />
            <mxPoint x="1330" y="-1104" as="targetPoint" />
          </mxGeometry>
        </mxCell>
        <mxCell id="bxKK3A8rRiATeC3KXuF5-4" style="edgeStyle=orthogonalEdgeStyle;rounded=0;orthogonalLoop=1;jettySize=auto;html=1;exitX=0;exitY=0.75;exitDx=0;exitDy=0;fontColor=#FFFFFF;" edge="1" parent="1" source="bxKK3A8rRiATeC3KXuF5-27">
          <mxGeometry relative="1" as="geometry">
            <mxPoint x="1067.5" y="-980" as="sourcePoint" />
            <Array as="points">
              <mxPoint x="930" y="-1025" />
              <mxPoint x="930" y="-970" />
            </Array>
            <mxPoint x="620" y="-970" as="targetPoint" />
          </mxGeometry>
        </mxCell>
        <mxCell id="bxKK3A8rRiATeC3KXuF5-5" style="edgeStyle=orthogonalEdgeStyle;rounded=0;orthogonalLoop=1;jettySize=auto;html=1;" edge="1" parent="1" source="bxKK3A8rRiATeC3KXuF5-9" target="bxKK3A8rRiATeC3KXuF5-21">
          <mxGeometry relative="1" as="geometry">
            <Array as="points">
              <mxPoint x="314" y="-1010" />
              <mxPoint x="314" y="-480" />
            </Array>
            <mxPoint x="270" y="-460" as="targetPoint" />
          </mxGeometry>
        </mxCell>
        <mxCell id="bxKK3A8rRiATeC3KXuF5-6" style="edgeStyle=orthogonalEdgeStyle;rounded=0;orthogonalLoop=1;jettySize=auto;html=1;exitX=1;exitY=0.5;exitDx=0;exitDy=0;entryX=0;entryY=0.5;entryDx=0;entryDy=0;fontColor=#FFFFFF;" edge="1" parent="1" source="bxKK3A8rRiATeC3KXuF5-9" target="bxKK3A8rRiATeC3KXuF5-15">
          <mxGeometry relative="1" as="geometry">
            <Array as="points">
              <mxPoint x="570" y="-1080" />
            </Array>
          </mxGeometry>
        </mxCell>
        <mxCell id="bxKK3A8rRiATeC3KXuF5-7" style="edgeStyle=orthogonalEdgeStyle;rounded=0;orthogonalLoop=1;jettySize=auto;html=1;exitX=1;exitY=0.25;exitDx=0;exitDy=0;fontColor=#FFFFFF;" edge="1" parent="1" source="bxKK3A8rRiATeC3KXuF5-9">
          <mxGeometry relative="1" as="geometry">
            <mxPoint x="1110" y="-1160" as="targetPoint" />
            <Array as="points">
              <mxPoint x="570" y="-1100" />
              <mxPoint x="600" y="-1100" />
              <mxPoint x="600" y="-1180" />
              <mxPoint x="1110" y="-1180" />
              <mxPoint x="1110" y="-1160" />
            </Array>
          </mxGeometry>
        </mxCell>
        <mxCell id="bxKK3A8rRiATeC3KXuF5-8" style="edgeStyle=orthogonalEdgeStyle;rounded=0;orthogonalLoop=1;jettySize=auto;html=1;exitX=0.5;exitY=1;exitDx=0;exitDy=0;entryX=0.5;entryY=0;entryDx=0;entryDy=0;fontColor=#FFFFFF;" edge="1" parent="1" source="bxKK3A8rRiATeC3KXuF5-9" target="bxKK3A8rRiATeC3KXuF5-2">
          <mxGeometry relative="1" as="geometry" />
        </mxCell>
        <mxCell id="bxKK3A8rRiATeC3KXuF5-9" value="&lt;p style=&quot;margin: 0px ; margin-top: 4px ; text-align: center&quot;&gt;&lt;b&gt;Main&lt;/b&gt;&lt;/p&gt;&lt;p style=&quot;margin: 0px ; margin-top: 4px ; text-align: center&quot;&gt;/main&lt;/p&gt;&lt;hr size=&quot;1&quot;&gt;&lt;p style=&quot;margin: 0px ; margin-left: 4px&quot;&gt;&lt;span&gt;&amp;lt;Header/&amp;gt;&lt;/span&gt;&lt;/p&gt;&lt;p style=&quot;margin: 0px ; margin-left: 4px&quot;&gt;&lt;span&gt;&amp;lt;MealList/&amp;gt;&lt;/span&gt;&lt;br&gt;&lt;/p&gt;&lt;p style=&quot;margin: 0px ; margin-left: 4px&quot;&gt;&amp;lt;PastNutritionInfo/&amp;gt;&lt;/p&gt;&lt;p style=&quot;margin: 0px ; margin-left: 4px&quot;&gt;button: skip-meal-button&lt;/p&gt;&lt;p style=&quot;margin: 0px ; margin-left: 4px&quot;&gt;button: not-followed-recommendation-button&lt;/p&gt;&lt;p style=&quot;margin: 0px 0px 0px 4px&quot;&gt;button: followed-recommendation-button&lt;/p&gt;&lt;p style=&quot;margin: 0px ; margin-left: 4px&quot;&gt;&lt;span&gt;button: record-snack-button&lt;/span&gt;&lt;br&gt;&lt;/p&gt;&lt;p style=&quot;margin: 0px 0px 0px 4px&quot;&gt;button: past-meal-record-button&lt;/p&gt;&lt;p style=&quot;margin: 0px 0px 0px 4px&quot;&gt;button: menu-recommendation-button&lt;/p&gt;&lt;p style=&quot;margin: 0px 0px 0px 4px&quot;&gt;button: nutrition-analysis-button&lt;/p&gt;&lt;p style=&quot;margin: 0px 0px 0px 4px&quot;&gt;&lt;span&gt;button: setting-button&lt;/span&gt;&lt;br&gt;&lt;/p&gt;&lt;hr size=&quot;1&quot;&gt;&lt;p style=&quot;margin: 0px ; margin-left: 4px&quot;&gt;+onClickedNotFollowedButton&lt;/p&gt;&lt;p style=&quot;margin: 0px ; margin-left: 4px&quot;&gt;+onClickedFollowedRecButton&lt;br&gt;&lt;/p&gt;&lt;p style=&quot;margin: 0px ; margin-left: 4px&quot;&gt;+onClickedFoodRecordButton&lt;/p&gt;&lt;p style=&quot;margin: 0px 0px 0px 4px&quot;&gt;+onClickedPastMealRecordButton&lt;/p&gt;&lt;p style=&quot;margin: 0px ; margin-left: 4px&quot;&gt;+onClickedMenuRecButton&lt;/p&gt;&lt;p style=&quot;margin: 0px ; margin-left: 4px&quot;&gt;+onClickedNutritionAnalysisButton&lt;/p&gt;&lt;p style=&quot;margin: 0px ; margin-left: 4px&quot;&gt;&lt;span&gt;+onClickedSettingsButton&lt;/span&gt;&lt;br&gt;&lt;/p&gt;" style="verticalAlign=top;align=left;overflow=fill;fontSize=12;fontFamily=Helvetica;html=1;rounded=0;shadow=0;comic=0;labelBackgroundColor=none;strokeWidth=1" vertex="1" parent="1">
          <mxGeometry x="374" y="-1194" width="246" height="324" as="geometry" />
        </mxCell>
        <mxCell id="bxKK3A8rRiATeC3KXuF5-10" style="edgeStyle=orthogonalEdgeStyle;rounded=0;orthogonalLoop=1;jettySize=auto;html=1;" edge="1" parent="1" source="bxKK3A8rRiATeC3KXuF5-12" target="bxKK3A8rRiATeC3KXuF5-20">
          <mxGeometry relative="1" as="geometry" />
        </mxCell>
        <mxCell id="bxKK3A8rRiATeC3KXuF5-11" style="edgeStyle=orthogonalEdgeStyle;rounded=0;orthogonalLoop=1;jettySize=auto;html=1;" edge="1" parent="1" source="bxKK3A8rRiATeC3KXuF5-12" target="bxKK3A8rRiATeC3KXuF5-9">
          <mxGeometry relative="1" as="geometry">
            <Array as="points">
              <mxPoint x="135" y="-970" />
              <mxPoint x="300" y="-970" />
              <mxPoint x="300" y="-1084" />
            </Array>
            <mxPoint x="1070" y="-1050" as="targetPoint" />
          </mxGeometry>
        </mxCell>
        <mxCell id="bxKK3A8rRiATeC3KXuF5-12" value="&lt;p style=&quot;margin: 0px ; margin-top: 4px ; text-align: center&quot;&gt;&lt;b&gt;Login&lt;/b&gt;&lt;/p&gt;&lt;p style=&quot;margin: 0px ; margin-top: 4px ; text-align: center&quot;&gt;/login&lt;/p&gt;&lt;hr size=&quot;1&quot;&gt;&lt;p style=&quot;margin: 0px ; margin-left: 4px&quot;&gt;input: username-input&lt;/p&gt;&lt;p style=&quot;margin: 0px ; margin-left: 4px&quot;&gt;input: password-input&lt;/p&gt;&lt;p style=&quot;margin: 0px ; margin-left: 4px&quot;&gt;button: submit-button&lt;/p&gt;&lt;p style=&quot;margin: 0px ; margin-left: 4px&quot;&gt;button: signup-button&lt;/p&gt;&lt;hr size=&quot;1&quot;&gt;&lt;p style=&quot;margin: 0px ; margin-left: 4px&quot;&gt;+ onClickedSignInButton&lt;/p&gt;&lt;p style=&quot;margin: 0px ; margin-left: 4px&quot;&gt;+ onClickedSignUpButton&lt;/p&gt;" style="verticalAlign=top;align=left;overflow=fill;fontSize=12;fontFamily=Helvetica;html=1;rounded=0;shadow=0;comic=0;labelBackgroundColor=none;strokeWidth=1" vertex="1" parent="1">
          <mxGeometry x="40" y="-1160" width="190" height="160" as="geometry" />
        </mxCell>
        <mxCell id="bxKK3A8rRiATeC3KXuF5-13" style="edgeStyle=orthogonalEdgeStyle;rounded=0;orthogonalLoop=1;jettySize=auto;html=1;entryX=0.5;entryY=0;entryDx=0;entryDy=0;fontColor=#FFFFFF;" edge="1" parent="1" source="bxKK3A8rRiATeC3KXuF5-9" target="bxKK3A8rRiATeC3KXuF5-17">
          <mxGeometry relative="1" as="geometry">
            <Array as="points">
              <mxPoint x="805" y="-930" />
            </Array>
          </mxGeometry>
        </mxCell>
        <mxCell id="bxKK3A8rRiATeC3KXuF5-14" style="edgeStyle=orthogonalEdgeStyle;rounded=0;orthogonalLoop=1;jettySize=auto;html=1;exitX=0;exitY=0.75;exitDx=0;exitDy=0;entryX=0;entryY=0.337;entryDx=0;entryDy=0;fontColor=#FFFFFF;entryPerimeter=0;" edge="1" parent="1" source="bxKK3A8rRiATeC3KXuF5-15" target="bxKK3A8rRiATeC3KXuF5-23">
          <mxGeometry relative="1" as="geometry">
            <Array as="points">
              <mxPoint x="710" y="-1040" />
              <mxPoint x="680" y="-1040" />
              <mxPoint x="680" y="-625" />
            </Array>
          </mxGeometry>
        </mxCell>
        <mxCell id="bxKK3A8rRiATeC3KXuF5-15" value="&lt;p style=&quot;margin: 0px ; margin-top: 4px ; text-align: center&quot;&gt;&lt;b&gt;Food Record&lt;/b&gt;&lt;/p&gt;&lt;p style=&quot;margin: 0px ; margin-top: 4px ; text-align: center&quot;&gt;/record&lt;/p&gt;&lt;hr size=&quot;1&quot;&gt;&lt;p style=&quot;margin: 0px ; margin-left: 4px&quot;&gt;&lt;span&gt;&amp;lt;Header/&amp;gt;&lt;/span&gt;&lt;/p&gt;&lt;p style=&quot;margin: 0px ; margin-left: 4px&quot;&gt;&lt;span&gt;input: meal-photo&lt;/span&gt;&lt;/p&gt;&lt;p style=&quot;margin: 0px ; margin-left: 4px&quot;&gt;&lt;span&gt;div: meal-photo-preview&lt;/span&gt;&lt;/p&gt;&lt;p style=&quot;margin: 0px ; margin-left: 4px&quot;&gt;&lt;span&gt;button: upload-photo-button&lt;/span&gt;&lt;/p&gt;&lt;hr size=&quot;1&quot;&gt;&lt;p style=&quot;margin: 0px ; margin-left: 4px&quot;&gt;&lt;span&gt;+onClickedUploadPhotoButton&lt;/span&gt;&lt;br&gt;&lt;/p&gt;&lt;p style=&quot;margin: 0px ; margin-left: 4px&quot;&gt;&lt;br&gt;&lt;/p&gt;" style="verticalAlign=top;align=left;overflow=fill;fontSize=12;fontFamily=Helvetica;html=1;rounded=0;shadow=0;comic=0;labelBackgroundColor=none;strokeWidth=1" vertex="1" parent="1">
          <mxGeometry x="710" y="-1169" width="180" height="159" as="geometry" />
        </mxCell>
        <mxCell id="bxKK3A8rRiATeC3KXuF5-16" style="edgeStyle=orthogonalEdgeStyle;rounded=0;orthogonalLoop=1;jettySize=auto;html=1;" edge="1" parent="1" source="bxKK3A8rRiATeC3KXuF5-17" target="bxKK3A8rRiATeC3KXuF5-30">
          <mxGeometry relative="1" as="geometry" />
        </mxCell>
        <mxCell id="bxKK3A8rRiATeC3KXuF5-17" value="&lt;p style=&quot;margin: 0px ; margin-top: 4px ; text-align: center&quot;&gt;&lt;b&gt;Past Meal Record&lt;/b&gt;&lt;/p&gt;&lt;p style=&quot;margin: 0px ; margin-top: 4px ; text-align: center&quot;&gt;/history&lt;/p&gt;&lt;hr size=&quot;1&quot;&gt;&lt;p style=&quot;margin: 0px 0px 0px 4px&quot;&gt;button: food-record-button&lt;/p&gt;&lt;p style=&quot;margin: 0px 0px 0px 4px&quot;&gt;&amp;lt;Records/&amp;gt;&lt;/p&gt;&lt;p style=&quot;margin: 0px 0px 0px 4px&quot;&gt;button: logout-button&lt;/p&gt;&lt;hr size=&quot;1&quot;&gt;&lt;p style=&quot;margin: 0px ; margin-left: 4px&quot;&gt;+onClickedFoodRecordButton&lt;/p&gt;&lt;p style=&quot;margin: 0px ; margin-left: 4px&quot;&gt;+onClickedLogoutButton&lt;/p&gt;" style="verticalAlign=top;align=left;overflow=fill;fontSize=12;fontFamily=Helvetica;html=1;rounded=0;shadow=0;comic=0;labelBackgroundColor=none;strokeWidth=1" vertex="1" parent="1">
          <mxGeometry x="710" y="-900" width="190" height="150" as="geometry" />
        </mxCell>
        <mxCell id="bxKK3A8rRiATeC3KXuF5-18" style="edgeStyle=orthogonalEdgeStyle;rounded=0;orthogonalLoop=1;jettySize=auto;html=1;" edge="1" parent="1" source="bxKK3A8rRiATeC3KXuF5-30" target="bxKK3A8rRiATeC3KXuF5-17">
          <mxGeometry relative="1" as="geometry">
            <mxPoint x="1015" y="-789" as="sourcePoint" />
          </mxGeometry>
        </mxCell>
        <mxCell id="bxKK3A8rRiATeC3KXuF5-19" style="edgeStyle=orthogonalEdgeStyle;rounded=0;orthogonalLoop=1;jettySize=auto;html=1;" edge="1" parent="1" source="bxKK3A8rRiATeC3KXuF5-20" target="bxKK3A8rRiATeC3KXuF5-21">
          <mxGeometry relative="1" as="geometry" />
        </mxCell>
        <mxCell id="bxKK3A8rRiATeC3KXuF5-20" value="&lt;p style=&quot;margin: 4px 0px 0px ; text-align: center&quot;&gt;&lt;b style=&quot;font-family: &amp;#34;verdana&amp;#34; ; font-size: 10px&quot;&gt;Sign up&lt;/b&gt;&lt;br style=&quot;font-family: &amp;#34;verdana&amp;#34; ; font-size: 10px&quot;&gt;&lt;span style=&quot;font-family: &amp;#34;verdana&amp;#34; ; font-size: 10px&quot;&gt;/signup&lt;/span&gt;&lt;br&gt;&lt;/p&gt;&lt;hr size=&quot;1&quot;&gt;&lt;p style=&quot;text-align: justify ; margin: 0px 0px 0px 4px&quot;&gt;&amp;lt;Header /&amp;gt;&lt;/p&gt;&lt;p style=&quot;text-align: justify ; margin: 0px 0px 0px 4px&quot;&gt;&lt;br&gt;&lt;/p&gt;&lt;p style=&quot;text-align: justify ; margin: 0px 0px 0px 4px&quot;&gt;h1: Sign up Page&lt;/p&gt;&lt;p style=&quot;text-align: justify ; margin: 0px 0px 0px 4px&quot;&gt;input: username-input&lt;/p&gt;&lt;p style=&quot;text-align: justify ; margin: 0px 0px 0px 4px&quot;&gt;input: password-input&lt;/p&gt;&lt;p style=&quot;text-align: justify ; margin: 0px 0px 0px 4px&quot;&gt;button: check-username-button&lt;/p&gt;&lt;p style=&quot;text-align: justify ; margin: 0px 0px 0px 4px&quot;&gt;button: register-button&lt;/p&gt;&lt;p style=&quot;text-align: justify ; margin: 0px 0px 0px 4px&quot;&gt;button: login-page-button&lt;/p&gt;&lt;hr size=&quot;1&quot; style=&quot;text-align: justify&quot;&gt;&lt;p style=&quot;text-align: justify ; margin: 4px 0px 0px&quot;&gt;&lt;span&gt;&amp;nbsp;+onChangedUsernameInput&lt;/span&gt;&lt;br&gt;&lt;/p&gt;&lt;p style=&quot;text-align: justify ; margin: 4px 0px 0px&quot;&gt;&lt;span&gt;&amp;nbsp;+onChangedPasswdInput&lt;/span&gt;&lt;/p&gt;&lt;p style=&quot;text-align: justify ; margin: 0px 0px 0px 4px&quot;&gt;+onClickedCheckUsernameButton&lt;/p&gt;&lt;p style=&quot;text-align: justify ; margin: 0px 0px 0px 4px&quot;&gt;+onClickedRegisterButton&lt;/p&gt;&lt;p style=&quot;text-align: justify ; margin: 0px 0px 0px 4px&quot;&gt;+onClickedLoginPageButton&lt;/p&gt;" style="verticalAlign=top;align=left;overflow=fill;fontSize=12;fontFamily=Helvetica;html=1;" vertex="1" parent="1">
          <mxGeometry x="37.5" y="-920" width="191.25" height="260" as="geometry" />
        </mxCell>
        <mxCell id="bxKK3A8rRiATeC3KXuF5-21" value="&lt;p style=&quot;margin: 4px 0px 0px ; text-align: center&quot;&gt;&lt;b style=&quot;font-family: &amp;#34;verdana&amp;#34; ; font-size: 10px&quot;&gt;Setting&lt;/b&gt;&lt;br style=&quot;font-family: &amp;#34;verdana&amp;#34; ; font-size: 10px&quot;&gt;&lt;span style=&quot;font-family: &amp;#34;verdana&amp;#34; ; font-size: 10px&quot;&gt;/setting&lt;/span&gt;&lt;br&gt;&lt;/p&gt;&lt;hr size=&quot;1&quot;&gt;&lt;p style=&quot;margin: 0px 0px 0px 4px&quot;&gt;&amp;lt;Header /&amp;gt;&lt;br&gt;&lt;/p&gt;&lt;p style=&quot;margin: 0px 0px 0px 4px&quot;&gt;&lt;br&gt;&lt;/p&gt;&lt;p style=&quot;margin: 0px 0px 0px 4px&quot;&gt;h1: Setting Page&lt;/p&gt;&lt;p style=&quot;margin: 0px 0px 0px 4px&quot;&gt;div: current-setting-info&lt;/p&gt;&lt;p style=&quot;margin: 0px 0px 0px 4px&quot;&gt;input: user-sex-input&lt;/p&gt;&lt;p style=&quot;margin: 0px 0px 0px 4px&quot;&gt;input: user-age-input&lt;/p&gt;&lt;p style=&quot;margin: 0px 0px 0px 4px&quot;&gt;input: user-height-input&lt;/p&gt;&lt;p style=&quot;margin: 0px 0px 0px 4px&quot;&gt;input: user-weight-input&lt;/p&gt;&lt;p style=&quot;margin: 0px 0px 0px 4px&quot;&gt;input: user-food-no-eat-input&lt;br&gt;&lt;/p&gt;&lt;p style=&quot;margin: 0px 0px 0px 4px&quot;&gt;button: user-food-no-eat-button&lt;/p&gt;&lt;p style=&quot;margin: 0px 0px 0px 4px&quot;&gt;button: confirm-button&lt;br&gt;&lt;/p&gt;&lt;p style=&quot;margin: 0px 0px 0px 4px&quot;&gt;button: delete-account-button&lt;/p&gt;&lt;hr size=&quot;1&quot;&gt;&lt;p style=&quot;margin: 0px 0px 0px 4px&quot;&gt;+ onChangedUserSexInput&lt;/p&gt;&lt;p style=&quot;margin: 0px 0px 0px 4px&quot;&gt;+ onChangedUserAgedInput&lt;/p&gt;&lt;p style=&quot;margin: 0px 0px 0px 4px&quot;&gt;+ onChangedUserHeightInput&lt;/p&gt;&lt;p style=&quot;margin: 0px 0px 0px 4px&quot;&gt;+ onChangedUserWeightInput&lt;/p&gt;&lt;p style=&quot;margin: 0px 0px 0px 4px&quot;&gt;+ onChangedUserFoodNoEatInput&lt;/p&gt;&lt;p style=&quot;margin: 0px 0px 0px 4px&quot;&gt;+ onClickedUserFoodNoEatButton&lt;/p&gt;&lt;p style=&quot;margin: 0px 0px 0px 4px&quot;&gt;+ onCllickedConfirmButton&lt;/p&gt;" style="verticalAlign=top;align=left;overflow=fill;fontSize=12;fontFamily=Helvetica;html=1;" vertex="1" parent="1">
          <mxGeometry x="37.5" y="-609" width="191.25" height="339" as="geometry" />
        </mxCell>
        <mxCell id="bxKK3A8rRiATeC3KXuF5-22" style="edgeStyle=orthogonalEdgeStyle;rounded=0;orthogonalLoop=1;jettySize=auto;html=1;exitX=0.5;exitY=1;exitDx=0;exitDy=0;fontColor=#FFFFFF;entryX=0.993;entryY=0.869;entryDx=0;entryDy=0;entryPerimeter=0;" edge="1" parent="1" source="bxKK3A8rRiATeC3KXuF5-23" target="bxKK3A8rRiATeC3KXuF5-17">
          <mxGeometry relative="1" as="geometry">
            <Array as="points">
              <mxPoint x="805" y="-489" />
              <mxPoint x="940" y="-489" />
              <mxPoint x="940" y="-770" />
            </Array>
            <mxPoint x="1010" y="-670" as="targetPoint" />
          </mxGeometry>
        </mxCell>
        <mxCell id="bxKK3A8rRiATeC3KXuF5-23" value="&lt;p style=&quot;margin: 0px ; margin-top: 4px ; text-align: center&quot;&gt;&lt;b&gt;Confirm Detection&amp;nbsp;&lt;/b&gt;&lt;/p&gt;&lt;p style=&quot;margin: 0px ; margin-top: 4px ; text-align: center&quot;&gt;/confirm&lt;b&gt;&amp;nbsp;&lt;/b&gt;&lt;/p&gt;&lt;hr size=&quot;1&quot;&gt;&lt;p style=&quot;margin: 0px ; margin-left: 4px&quot;&gt;&amp;lt;Header/&amp;gt;&lt;/p&gt;&lt;p style=&quot;margin: 0px ; margin-left: 4px&quot;&gt;&amp;lt;Record/&amp;gt;&lt;/p&gt;&lt;p style=&quot;margin: 0px ; margin-left: 4px&quot;&gt;&amp;lt;Nutrition/&amp;gt;&lt;/p&gt;&lt;p style=&quot;margin: 0px ; margin-left: 4px&quot;&gt;image: meal-image&lt;/p&gt;&lt;p style=&quot;margin: 0px ; margin-left: 4px&quot;&gt;input: meal-name-input&lt;/p&gt;&lt;p style=&quot;margin: 0px ; margin-left: 4px&quot;&gt;&lt;span&gt;button: confirm-button&lt;/span&gt;&lt;br&gt;&lt;/p&gt;&lt;p style=&quot;margin: 0px ; margin-left: 4px&quot;&gt;button: edit-result-button&lt;/p&gt;&lt;hr size=&quot;1&quot;&gt;&lt;p style=&quot;margin: 0px ; margin-left: 4px&quot;&gt;+onClickedConfirmButton&lt;/p&gt;&lt;p style=&quot;margin: 0px ; margin-left: 4px&quot;&gt;+onClickedEditResultButton&lt;/p&gt;&lt;p style=&quot;margin: 0px ; margin-left: 4px&quot;&gt;&lt;br&gt;&lt;/p&gt;&lt;p style=&quot;margin: 0px ; margin-left: 4px&quot;&gt;&lt;br&gt;&lt;/p&gt;" style="verticalAlign=top;align=left;overflow=fill;fontSize=12;fontFamily=Helvetica;html=1;" vertex="1" parent="1">
          <mxGeometry x="710" y="-688" width="190" height="188" as="geometry" />
        </mxCell>
        <mxCell id="bxKK3A8rRiATeC3KXuF5-26" value="User?" style="rhombus;whiteSpace=wrap;html=1;fillColor=#000000;fontColor=#FFFFFF;" vertex="1" parent="1">
          <mxGeometry x="95" y="-990" width="80" height="40" as="geometry" />
        </mxCell>
        <mxCell id="bxKK3A8rRiATeC3KXuF5-27" value="&lt;p style=&quot;margin: 0px ; margin-top: 4px ; text-align: center&quot;&gt;Menu Recommendation&lt;/p&gt;&lt;p style=&quot;margin: 0px ; margin-top: 4px ; text-align: center&quot;&gt;&lt;b&gt;/recommendation&lt;/b&gt;&lt;/p&gt;&lt;hr size=&quot;1&quot;&gt;&lt;p style=&quot;margin: 0px 0px 0px 4px&quot;&gt;h1: Today&#39;s Recommendation&lt;/p&gt;&lt;p style=&quot;margin: 0px 0px 0px 4px&quot;&gt;&amp;lt;MealList/&amp;gt;&lt;/p&gt;&lt;p style=&quot;margin: 0px 0px 0px 4px&quot;&gt;button:&amp;nbsp;other-meal-breakfast-button&lt;/p&gt;&lt;p style=&quot;margin: 0px 0px 0px 4px&quot;&gt;button: other-meal-lunch-button&lt;/p&gt;&lt;p style=&quot;margin: 0px 0px 0px 4px&quot;&gt;button: other-meal-dinner-button&lt;br&gt;&lt;/p&gt;&lt;hr size=&quot;1&quot;&gt;&lt;p style=&quot;margin: 0px 0px 0px 4px&quot;&gt;+ onClickBreakfastButton&lt;br&gt;+ onClickLunchButton&lt;/p&gt;&lt;p style=&quot;margin: 0px 0px 0px 4px&quot;&gt;+ onClickDinnerButton&lt;/p&gt;" style="verticalAlign=top;align=left;overflow=fill;fontSize=12;fontFamily=Helvetica;html=1;rounded=0;shadow=0;comic=0;labelBackgroundColor=none;strokeWidth=1" vertex="1" parent="1">
          <mxGeometry x="1000" y="-1160" width="220" height="180" as="geometry" />
        </mxCell>
        <mxCell id="bxKK3A8rRiATeC3KXuF5-28" value="&lt;p style=&quot;margin: 0px ; margin-top: 4px ; text-align: center&quot;&gt;Nutritional Info and Recipe&lt;/p&gt;&lt;p style=&quot;margin: 0px ; margin-top: 4px ; text-align: center&quot;&gt;&lt;b&gt;/recommendation/:id&lt;/b&gt;&lt;/p&gt;&lt;hr size=&quot;1&quot;&gt;&lt;p style=&quot;margin: 0px 0px 0px 4px&quot;&gt;h1: Nutritional Info and Recipe&lt;/p&gt;&lt;p style=&quot;margin: 0px 0px 0px 4px&quot;&gt;&amp;lt;Nutrition/&amp;gt;&lt;/p&gt;&lt;p style=&quot;margin: 0px 0px 0px 4px&quot;&gt;&amp;lt;Recipe/&amp;gt;&lt;/p&gt;&lt;p style=&quot;margin: 0px 0px 0px 4px&quot;&gt;button:&amp;nbsp;&amp;nbsp;&lt;span style=&quot;text-align: center&quot;&gt;menu-recommendation-button&lt;/span&gt;&lt;/p&gt;&lt;hr size=&quot;1&quot;&gt;&lt;p style=&quot;margin: 0px 0px 0px 4px&quot;&gt;+ onClickMenuRecommendationButton&lt;/p&gt;" style="verticalAlign=top;align=left;overflow=fill;fontSize=12;fontFamily=Helvetica;html=1;rounded=0;shadow=0;comic=0;labelBackgroundColor=none;strokeWidth=1" vertex="1" parent="1">
          <mxGeometry x="1330" y="-1160" width="220" height="140" as="geometry" />
        </mxCell>
        <mxCell id="bxKK3A8rRiATeC3KXuF5-29" style="edgeStyle=orthogonalEdgeStyle;rounded=0;orthogonalLoop=1;jettySize=auto;html=1;" edge="1" parent="1" source="bxKK3A8rRiATeC3KXuF5-30" target="bxKK3A8rRiATeC3KXuF5-17">
          <mxGeometry relative="1" as="geometry" />
        </mxCell>
        <mxCell id="bxKK3A8rRiATeC3KXuF5-30" value="&lt;p style=&quot;margin: 0px ; margin-top: 4px ; text-align: center&quot;&gt;&lt;b&gt;Previous meal&lt;/b&gt;&lt;/p&gt;&lt;p style=&quot;margin: 0px ; margin-top: 4px ; text-align: center&quot;&gt;/history/:id/&lt;b&gt;&amp;nbsp;&lt;/b&gt;&lt;/p&gt;&lt;hr size=&quot;1&quot;&gt;&lt;p style=&quot;margin: 0px ; margin-left: 4px&quot;&gt;&amp;lt; RecordDetail /&amp;gt;&lt;/p&gt;&lt;p style=&quot;margin: 0px ; margin-left: 4px&quot;&gt;button: back-to-records-button&lt;/p&gt;&lt;hr size=&quot;1&quot;&gt;&lt;p style=&quot;margin: 0px ; margin-left: 4px&quot;&gt;+ onClickRecordsButton&lt;/p&gt;" style="verticalAlign=top;align=left;overflow=fill;fontSize=12;fontFamily=Helvetica;html=1;" vertex="1" parent="1">
          <mxGeometry x="1032.5" y="-850" width="177.5" height="110" as="geometry" />
        </mxCell>
        <mxCell id="bxKK3A8rRiATeC3KXuF5-31" value="" style="endArrow=classic;html=1;rounded=0;edgeStyle=orthogonalEdgeStyle;" edge="1" parent="1" target="bxKK3A8rRiATeC3KXuF5-9">
          <mxGeometry width="50" height="50" relative="1" as="geometry">
            <mxPoint x="232.75" y="-479.5" as="sourcePoint" />
            <mxPoint x="378" y="-1010" as="targetPoint" />
            <Array as="points">
              <mxPoint x="314" y="-479" />
              <mxPoint x="314" y="-1010" />
            </Array>
          </mxGeometry>
        </mxCell>
        <mxCell id="bxKK3A8rRiATeC3KXuF5-33" style="edgeStyle=orthogonalEdgeStyle;rounded=0;orthogonalLoop=1;jettySize=auto;html=1;exitX=0.25;exitY=0;exitDx=0;exitDy=0;entryX=0.25;entryY=1;entryDx=0;entryDy=0;fontColor=#FFFFFF;" edge="1" parent="1">
          <mxGeometry relative="1" as="geometry">
            <mxPoint x="482.5" y="-832" as="sourcePoint" />
            <mxPoint x="485.5" y="-870" as="targetPoint" />
          </mxGeometry>
        </mxCell>
        <mxCell id="bxKK3A8rRiATeC3KXuF5-34" style="edgeStyle=orthogonalEdgeStyle;rounded=0;orthogonalLoop=1;jettySize=auto;html=1;exitX=0;exitY=0.25;exitDx=0;exitDy=0;entryX=0.998;entryY=0.208;entryDx=0;entryDy=0;fontColor=#FFFFFF;entryPerimeter=0;" edge="1" parent="1">
          <mxGeometry relative="1" as="geometry">
            <Array as="points">
              <mxPoint x="710" y="-1112" />
            </Array>
            <mxPoint x="710" y="-1114.25" as="sourcePoint" />
            <mxPoint x="619.508" y="-1111.6080000000002" as="targetPoint" />
          </mxGeometry>
        </mxCell>
      </root>
    </mxGraphModel>
  </diagram>
</mxfile>
